<svg width="350" height="350" viewBox="0 0 350 350" fill="none" xmlns="http://www.w3.org/2000/svg">
<line x1="252.92" y1="311.097" x2="96.1" y2="39.4762" stroke="white" stroke-width="1.13638" stroke-dasharray="2.27 2.27"/>
<line x1="310.529" y1="253.905" x2="38.9077" y2="97.0844" stroke="white" stroke-width="1.13638" stroke-dasharray="2.27 2.27"/>
<line x1="331.822" y1="175.571" x2="18.1816" y2="175.571" stroke="white" stroke-width="1.13638" stroke-dasharray="2.27 2.27"/>
<line x1="311.097" y1="97.0844" x2="39.4758" y2="253.905" stroke="white" stroke-width="1.13638" stroke-dasharray="2.27 2.27"/>
<line x1="253.905" y1="39.4762" x2="97.0842" y2="311.097" stroke="white" stroke-width="1.13638" stroke-dasharray="2.27 2.27"/>
<line x1="175.57" y1="18.1821" x2="175.57" y2="331.823" stroke="white" stroke-width="1.13638" stroke-dasharray="2.27 2.27"/>
<rect x="78.4668" y="20.9418" width="36.3642" height="36.3642" rx="5.6819" fill="white"/>
<path fill-rule="evenodd" clip-rule="evenodd" d="M86.3597 45.6815H106.815V30.6813H86.3597V45.6815Z" fill="#FFDA3E"/>
<path fill-rule="evenodd" clip-rule="evenodd" d="M96.5871 34.4313L86.3597 45.6814H106.815L96.5871 34.4313Z" fill="#FFCC00"/>
<path fill-rule="evenodd" clip-rule="evenodd" d="M106.815 30.6813L97.6532 39.6192C97.0562 40.2021 96.1181 40.2021 95.521 39.6192L86.3597 30.6813H106.815Z" fill="#FF3333"/>
<rect x="20.9794" y="78.3988" width="36.3642" height="36.3642" rx="5.6819" fill="white"/>
<path fill-rule="evenodd" clip-rule="evenodd" d="M32.18 104.226C32.18 104.95 31.567 105.536 30.8111 105.536H29.7718C29.0172 105.536 28.4042 104.95 28.4042 104.226V87.7138C28.4042 86.9914 29.0185 86.4034 29.7718 86.4034H30.8111C31.5683 86.4034 32.18 86.9914 32.18 87.7138V104.226Z" fill="#434343"/>
<path fill-rule="evenodd" clip-rule="evenodd" d="M47.5263 86.3638H34.8456C34.1103 86.3638 33.5141 86.9517 33.5141 87.6741V104.186C33.5141 104.91 34.1103 105.497 34.8456 105.497H36.0355V102.908H46.3917V105.497H47.5263C48.2641 105.497 48.8591 104.91 48.8591 104.186V87.6741C48.8591 86.9517 48.2641 86.3638 47.5263 86.3638ZM37.3774 101.762H36.0497V100.413H37.3774V101.762ZM37.3774 99.1998H36.0497V97.851H37.3774V99.1998ZM37.3774 96.6379H36.0497V95.3096H37.3774V96.6379ZM39.9529 101.762H38.6252V100.413H39.9529V101.762ZM39.9529 99.1998H38.6252V97.8317H39.9529V99.1998ZM39.9529 96.6379H38.6252V95.2891H39.9529V96.6379ZM42.5284 101.762H41.2008V100.433H42.5284V101.762ZM42.5284 99.1998H41.2008V97.8715H42.5284V99.1998ZM42.5284 96.6379H41.2008V95.2699H42.5284V96.6379ZM46.4123 97.8599V99.201H43.7763V97.8599H46.4123ZM43.7763 96.6379V95.2776H46.4123V96.6379H43.7763ZM46.4123 91.5271H36.0497V88.8859H46.4123V91.5271Z" fill="#434343"/>
<path fill-rule="evenodd" clip-rule="evenodd" d="M45.0638 106.819L45.0612 104.325H37.4003L37.4029 106.819H45.0638Z" fill="#434343"/>
<rect y="158.054" width="36.3642" height="36.3642" rx="5.6819" fill="white"/>
<path d="M27.1222 167.857C27.1034 167.72 26.9839 167.645 26.8852 167.637C26.7867 167.628 24.7012 167.474 24.7012 167.474C24.7012 167.474 23.2528 166.036 23.0939 165.877C22.9348 165.718 22.6242 165.766 22.5036 165.802C22.4858 165.807 22.1871 165.899 21.693 166.052C21.2092 164.66 20.3553 163.38 18.8532 163.38C18.8117 163.38 18.769 163.382 18.7263 163.384C18.2991 162.819 17.7699 162.574 17.3128 162.574C13.8135 162.574 12.1417 166.948 11.6176 169.171C10.2578 169.593 9.29189 169.892 9.16851 169.931C8.40953 170.169 8.38553 170.193 8.28587 170.908C8.21087 171.45 6.22498 186.807 6.22498 186.807L21.6995 189.707L30.0841 187.893C30.0841 187.893 27.1407 167.993 27.1222 167.857ZM20.8378 166.316L19.5284 166.722C19.5288 166.629 19.5293 166.539 19.5293 166.439C19.5293 165.574 19.4092 164.877 19.2165 164.325C19.9905 164.422 20.506 165.303 20.8378 166.316ZM18.2563 164.497C18.4715 165.036 18.6115 165.81 18.6115 166.854C18.6115 166.907 18.611 166.956 18.6105 167.006C17.759 167.269 16.8337 167.556 15.9063 167.843C16.427 165.833 17.403 164.863 18.2563 164.497ZM17.2167 163.513C17.3677 163.513 17.5199 163.564 17.6655 163.664C16.544 164.192 15.3419 165.521 14.8343 168.175L12.6967 168.837C13.2913 166.813 14.7033 163.513 17.2167 163.513Z" fill="#95BF46"/>
<path d="M26.8852 167.637C26.7866 167.628 24.7012 167.474 24.7012 167.474C24.7012 167.474 23.2528 166.036 23.0938 165.877C23.0343 165.817 22.9541 165.787 22.8702 165.774L21.7002 189.706L30.0841 187.893C30.0841 187.893 27.1406 167.993 27.1221 167.857C27.1034 167.72 26.9839 167.645 26.8852 167.637Z" fill="#5E8E3E"/>
<path d="M18.8532 172.269L17.8194 175.345C17.8194 175.345 16.9136 174.861 15.8032 174.861C14.1754 174.861 14.0935 175.883 14.0935 176.14C14.0935 177.545 17.7548 178.083 17.7548 181.373C17.7548 183.961 16.1131 185.628 13.8995 185.628C11.2432 185.628 9.88477 183.975 9.88477 183.975L10.596 181.625C10.596 181.625 11.9924 182.824 13.1706 182.824C13.9405 182.824 14.2537 182.218 14.2537 181.775C14.2537 179.943 11.2499 179.861 11.2499 176.85C11.2499 174.316 13.0686 171.864 16.7398 171.864C18.1544 171.864 18.8532 172.269 18.8532 172.269Z" fill="white"/>
<rect x="21.2061" y="235.631" width="36.3642" height="36.3642" rx="5.6819" fill="white"/>
<path d="M40.4321 251.875V261.33H38.6685V251.212L40.4321 251.875Z" fill="black"/>
<path d="M33.3858 250.993C33.3858 248.575 34.704 247.257 36.2495 247.257C37.795 247.257 38.0131 247.475 39.7677 248.357C41.5223 249.239 41.9677 249.457 42.8496 249.457C43.7314 249.457 44.1678 248.793 44.1678 247.475H45.7042C45.9223 250.112 44.386 251.212 42.8405 251.212C41.295 251.212 40.8586 250.993 39.3223 250.112C37.7859 249.23 37.3404 249.012 36.4586 249.012C35.5767 249.012 35.1404 249.675 34.9222 251.212L33.3858 250.993Z" fill="black"/>
<path d="M39.7675 267.048C32.2492 267.048 26.1309 260.93 26.1309 253.412C26.1309 245.893 32.2492 239.775 39.7675 239.775C47.2858 239.775 53.404 245.893 53.404 253.412C53.404 260.93 47.2858 267.048 39.7675 267.048ZM39.7675 240.657C32.731 240.657 27.0128 246.375 27.0128 253.412C27.0128 260.448 32.731 266.166 39.7675 266.166C46.8039 266.166 52.5222 260.448 52.5222 253.412C52.5222 246.375 46.8039 240.657 39.7675 240.657Z" fill="black"/>
<rect x="78.8588" y="292.923" width="36.3642" height="36.3642" rx="5.6819" fill="white"/>
<path d="M91.1187 324.905C95.6298 324.905 99.2868 321.134 99.2868 316.482C99.2868 311.83 95.6298 308.059 91.1187 308.059C86.6076 308.059 82.9506 311.83 82.9506 316.482C82.9506 321.134 86.6076 324.905 91.1187 324.905Z" fill="#04E061"/>
<path d="M105.289 323.842C108.015 323.842 110.224 321.564 110.224 318.753C110.224 315.941 108.015 313.663 105.289 313.663C102.563 313.663 100.353 315.941 100.353 318.753C100.353 321.564 102.563 323.842 105.289 323.842Z" fill="#FF4053"/>
<path d="M92.6793 306.961C94.3662 306.961 95.7337 305.551 95.7337 303.811C95.7337 302.072 94.3662 300.661 92.6793 300.661C90.9925 300.661 89.6251 302.072 89.6251 303.811C89.6251 305.551 90.9925 306.961 92.6793 306.961Z" fill="#965EEB"/>
<path d="M103.371 312.564C107.038 312.564 110.012 309.498 110.012 305.715C110.012 301.933 107.038 298.867 103.371 298.867C99.7029 298.867 96.7297 301.933 96.7297 305.715C96.7297 309.498 99.7029 312.564 103.371 312.564Z" fill="#00AAFF"/>
<rect x="158.667" y="313.629" width="36.3642" height="36.3642" rx="5.6819" fill="white"/>
<path d="M177.215 332.261C181.102 332.26 184.251 329.107 184.25 325.221C184.249 321.333 181.096 318.184 177.21 318.185C173.323 318.186 170.173 321.339 170.174 325.226C170.179 329.111 173.329 332.259 177.215 332.261ZM177.215 322.311C178.825 322.311 180.13 323.617 180.13 325.227C180.13 326.837 178.825 328.141 177.215 328.141C175.604 328.141 174.299 326.836 174.299 325.226C174.301 323.617 175.606 322.312 177.215 322.311ZM180.06 338.004C181.509 337.675 182.891 337.102 184.149 336.311C185.107 335.692 185.383 334.416 184.764 333.458C184.156 332.515 182.905 332.23 181.949 332.818C179.051 334.63 175.371 334.63 172.473 332.818C171.511 332.215 170.241 332.503 169.635 333.464C169.027 334.426 169.313 335.7 170.276 336.308C170.277 336.308 170.278 336.309 170.278 336.309C171.535 337.1 172.917 337.673 174.364 338.002L170.429 341.938C169.645 342.766 169.681 344.072 170.51 344.856C171.307 345.609 172.551 345.609 173.347 344.856L177.212 340.989L181.08 344.856C181.885 345.66 183.188 345.66 183.993 344.856C184.797 344.051 184.797 342.748 183.993 341.943L180.06 338.004Z" fill="#EB722E"/>
<rect x="236.089" y="292.158" width="36.3642" height="36.3642" rx="5.6819" fill="white"/>
<path d="M264.38 312.09C265.285 312.973 266.239 313.804 267.051 314.776C267.409 315.208 267.749 315.654 268.008 316.156C268.376 316.868 268.043 317.653 267.404 317.695L263.43 317.694C262.406 317.779 261.588 317.366 260.901 316.665C260.351 316.105 259.841 315.509 259.312 314.93C259.095 314.693 258.868 314.47 258.597 314.294C258.055 313.942 257.584 314.05 257.274 314.615C256.958 315.191 256.887 315.828 256.856 316.469C256.813 317.405 256.53 317.651 255.591 317.694C253.582 317.788 251.676 317.484 249.905 316.471C248.344 315.578 247.134 314.317 246.08 312.889C244.028 310.11 242.457 307.055 241.045 303.915C240.727 303.208 240.96 302.828 241.74 302.815C243.037 302.789 244.333 302.791 245.63 302.813C246.157 302.821 246.506 303.123 246.709 303.62C247.41 305.345 248.269 306.985 249.346 308.506C249.633 308.911 249.925 309.316 250.341 309.601C250.802 309.916 251.153 309.811 251.37 309.298C251.507 308.973 251.568 308.622 251.599 308.274C251.701 307.074 251.715 305.877 251.535 304.682C251.424 303.936 251.004 303.454 250.26 303.312C249.88 303.241 249.937 303.099 250.12 302.882C250.44 302.509 250.74 302.276 251.339 302.276H255.829C256.536 302.415 256.693 302.733 256.79 303.444L256.794 308.432C256.786 308.707 256.931 309.525 257.427 309.707C257.824 309.837 258.086 309.519 258.324 309.267C259.399 308.126 260.167 306.778 260.852 305.381C261.156 304.767 261.418 304.13 261.671 303.493C261.859 303.02 262.154 302.787 262.687 302.798L267.008 302.801C267.136 302.801 267.266 302.803 267.39 302.824C268.118 302.949 268.318 303.262 268.093 303.973C267.739 305.089 267.049 306.018 266.375 306.953C265.654 307.95 264.883 308.913 264.169 309.916C263.512 310.832 263.564 311.294 264.38 312.09Z" fill="#436EAB"/>
<rect x="293.185" y="234.31" width="36.3642" height="36.3642" rx="5.6819" fill="white"/>
<path d="M311.363 238.639C303.863 238.639 297.726 244.786 297.726 252.357C297.726 259.203 302.717 264.885 309.236 265.912V256.328H305.772V252.357H309.236V249.331C309.236 245.895 311.267 244.006 314.39 244.006C315.877 244.006 317.431 244.266 317.431 244.266V247.647H315.713C314.022 247.647 313.49 248.702 313.49 249.783V252.357H317.281L316.667 256.328H313.49V265.912C316.703 265.402 319.63 263.756 321.74 261.27C323.851 258.785 325.007 255.623 324.999 252.357C324.999 244.786 318.863 238.639 311.363 238.639Z" fill="#1B65F0"/>
<rect x="313.636" y="156.819" width="36.3642" height="36.3642" rx="5.6819" fill="white"/>
<path d="M339.61 161.365H324.025C320.797 161.365 318.181 163.981 318.181 167.209V182.794C318.181 186.021 320.797 188.638 324.025 188.638H339.61C342.837 188.638 345.454 186.021 345.454 182.794V167.209C345.454 163.981 342.837 161.365 339.61 161.365Z" fill="url(#paint0_radial_1_1105)"/>
<path d="M339.61 161.365H324.025C320.797 161.365 318.181 163.981 318.181 167.209V182.794C318.181 186.021 320.797 188.638 324.025 188.638H339.61C342.837 188.638 345.454 186.021 345.454 182.794V167.209C345.454 163.981 342.837 161.365 339.61 161.365Z" fill="url(#paint1_radial_1_1105)"/>
<path d="M339.61 161.365H324.025C320.797 161.365 318.181 163.981 318.181 167.209V182.794C318.181 186.021 320.797 188.638 324.025 188.638H339.61C342.837 188.638 345.454 186.021 345.454 182.794V167.209C345.454 163.981 342.837 161.365 339.61 161.365Z" fill="url(#paint2_radial_1_1105)"/>
<path d="M338.636 169.644C338.636 170.451 337.982 171.105 337.175 171.105C336.368 171.105 335.714 170.451 335.714 169.644C335.714 168.837 336.368 168.183 337.175 168.183C337.982 168.183 338.636 168.837 338.636 169.644Z" fill="white"/>
<path fill-rule="evenodd" clip-rule="evenodd" d="M331.818 179.872C334.508 179.872 336.688 177.691 336.688 175.002C336.688 172.312 334.508 170.131 331.818 170.131C329.128 170.131 326.948 172.312 326.948 175.002C326.948 177.691 329.128 179.872 331.818 179.872ZM331.818 177.924C333.432 177.924 334.74 176.615 334.74 175.002C334.74 173.388 333.432 172.079 331.818 172.079C330.204 172.079 328.896 173.388 328.896 175.002C328.896 176.615 330.204 177.924 331.818 177.924Z" fill="white"/>
<path fill-rule="evenodd" clip-rule="evenodd" d="M322.078 174.612C322.078 171.339 322.078 169.702 322.715 168.452C323.275 167.352 324.169 166.458 325.269 165.898C326.519 165.261 328.155 165.261 331.428 165.261H332.208C335.481 165.261 337.117 165.261 338.367 165.898C339.467 166.458 340.361 167.352 340.921 168.452C341.558 169.702 341.558 171.339 341.558 174.612V175.391C341.558 178.664 341.558 180.301 340.921 181.551C340.361 182.651 339.467 183.545 338.367 184.105C337.117 184.742 335.481 184.742 332.208 184.742H331.428C328.155 184.742 326.519 184.742 325.269 184.105C324.169 183.545 323.275 182.651 322.715 181.551C322.078 180.301 322.078 178.664 322.078 175.391V174.612ZM331.428 167.209H332.208C333.876 167.209 335.011 167.211 335.887 167.282C336.742 167.352 337.178 167.479 337.483 167.634C338.216 168.007 338.812 168.603 339.186 169.336C339.341 169.641 339.467 170.078 339.537 170.932C339.609 171.809 339.61 172.943 339.61 174.612V175.391C339.61 177.06 339.609 178.194 339.537 179.071C339.467 179.925 339.341 180.362 339.186 180.667C338.812 181.4 338.216 181.996 337.483 182.369C337.178 182.524 336.742 182.651 335.887 182.721C335.011 182.792 333.876 182.794 332.208 182.794H331.428C329.76 182.794 328.625 182.792 327.749 182.721C326.894 182.651 326.458 182.524 326.153 182.369C325.42 181.996 324.824 181.4 324.45 180.667C324.295 180.362 324.169 179.925 324.099 179.071C324.027 178.194 324.026 177.06 324.026 175.391V174.612C324.026 172.943 324.027 171.809 324.099 170.932C324.169 170.078 324.295 169.641 324.45 169.336C324.824 168.603 325.42 168.007 326.153 167.634C326.458 167.479 326.894 167.352 327.749 167.282C328.625 167.211 329.76 167.209 331.428 167.209Z" fill="white"/>
<rect x="292.96" y="78.9351" width="36.3642" height="36.3642" rx="5.6819" fill="white"/>
<path d="M321.921 84.589C321.206 83.9376 318.318 81.8665 311.886 81.8384C311.886 81.8384 304.3 81.3865 300.602 84.7374C298.544 86.7713 297.82 89.7475 297.743 93.4373C297.667 97.1271 297.568 104.042 304.315 105.917H304.322L304.317 108.778C304.317 108.778 304.274 109.936 305.046 110.173C305.98 110.459 306.528 109.579 307.42 108.63C307.909 108.109 308.585 107.343 309.094 106.759C313.709 107.142 317.258 106.265 317.661 106.136C318.592 105.837 323.865 105.17 324.722 98.2556C325.607 91.1288 324.294 86.6208 321.921 84.589Z" fill="white"/>
<path d="M320.42 86.0288C319.816 85.4865 317.208 83.8677 311.767 83.8443C311.767 83.8443 305.323 83.4261 302.196 86.2249C300.455 87.9229 299.868 90.448 299.804 93.5294C299.74 96.6109 299.407 102.498 305.112 104.063C305.112 104.063 305.09 108.434 305.087 108.818C305.087 109.086 305.13 109.27 305.285 109.308C305.397 109.335 305.565 109.278 305.707 109.137C306.619 108.232 309.54 104.751 309.54 104.751C313.459 105.004 316.577 104.24 316.912 104.132C317.703 103.88 321.979 103.518 322.703 97.7428C323.45 91.79 322.428 87.7268 320.42 86.0288Z" fill="#7360F2"/>
<path d="M314.533 93.2762C314.463 91.8668 313.738 91.1266 312.359 91.0555" stroke="white" stroke-width="0.727584" stroke-linecap="round" stroke-linejoin="round"/>
<path d="M316.4 93.8944C316.429 92.5813 316.035 91.4842 315.219 90.6032C314.399 89.719 313.264 89.2321 311.808 89.1268" stroke="white" stroke-width="0.727584" stroke-linecap="round" stroke-linejoin="round"/>
<path d="M318.311 94.6328C318.294 92.3543 317.604 90.5597 316.244 89.2492C314.883 87.9387 313.19 87.2765 311.166 87.2626" stroke="white" stroke-width="0.727584" stroke-linecap="round" stroke-linejoin="round"/>
<path d="M312.431 98.0897C312.431 98.0897 312.943 98.1324 313.218 97.7973L313.755 97.1301C314.014 96.7992 314.639 96.5882 315.251 96.925C315.709 97.1834 316.154 97.4642 316.585 97.7666C316.991 98.0616 317.822 98.7471 317.825 98.7471C318.221 99.0775 318.313 99.5627 318.043 100.074C318.043 100.077 318.041 100.082 318.041 100.085C317.744 100.594 317.366 101.052 316.923 101.444C316.918 101.447 316.918 101.449 316.913 101.452C316.529 101.769 316.15 101.95 315.779 101.994C315.724 102.003 315.669 102.006 315.613 102.004C315.449 102.005 315.286 101.981 315.131 101.93L315.119 101.913C314.546 101.754 313.591 101.354 312 100.487C311.079 99.9915 310.203 99.4194 309.38 98.7774C308.967 98.4557 308.574 98.111 308.201 97.7448L308.161 97.7056L308.122 97.6664L308.082 97.6272C308.069 97.6144 308.056 97.6012 308.042 97.5879C307.672 97.2199 307.323 96.8312 306.997 96.4237C306.347 95.6107 305.768 94.7449 305.266 93.8355C304.388 92.2632 303.984 91.3202 303.823 90.754L303.805 90.7421C303.755 90.5882 303.73 90.4272 303.731 90.2655C303.728 90.2107 303.732 90.1558 303.741 90.1018C303.788 89.7354 303.971 89.3615 304.291 88.9801C304.293 88.9754 304.296 88.9754 304.299 88.9703C304.695 88.5326 305.159 88.1601 305.674 87.867C305.677 87.867 305.682 87.8644 305.685 87.8644C306.203 87.598 306.694 87.6884 307.028 88.0776C307.031 88.0801 307.723 88.9017 308.021 89.3028C308.327 89.7282 308.611 90.1684 308.872 90.6219C309.213 91.226 309 91.8446 308.665 92.0995L307.99 92.6298C307.649 92.9018 307.693 93.407 307.693 93.407C307.693 93.407 308.694 97.1471 312.431 98.0897Z" fill="white"/>
<rect x="235.699" y="21.2527" width="36.3642" height="36.3642" rx="5.6819" fill="white"/>
<path d="M247.334 50.0772L247.775 50.2976C249.611 51.3994 251.668 51.9136 253.724 51.9136C260.188 51.9136 265.477 46.6249 265.477 40.161C265.477 37.0759 264.228 34.0643 262.025 31.8607C259.821 29.657 256.883 28.4083 253.724 28.4083C247.26 28.4083 241.972 33.697 242.045 40.2344C242.045 42.438 242.706 44.5682 243.808 46.4045L244.102 46.8453L242.927 51.1791L247.334 50.0772Z" fill="#00E676"/>
<path d="M262.835 30.1021C260.338 27.5312 256.886 26.1356 253.36 26.1356C245.868 26.1356 239.844 32.2323 239.918 39.6511C239.918 42.0017 240.579 44.2787 241.681 46.3355L239.771 53.3136L246.896 51.4772C248.879 52.579 251.083 53.0932 253.286 53.0932C260.705 53.0932 266.729 46.9965 266.729 39.5777C266.729 35.9785 265.333 32.5996 262.835 30.1021ZM253.36 50.8162C251.377 50.8162 249.393 50.302 247.704 49.2736L247.263 49.0533L243.003 50.1551L244.105 45.9682L243.811 45.5275C240.579 40.3122 242.121 33.4076 247.41 30.1756C252.699 26.9436 259.53 28.4861 262.762 33.7748C265.994 39.0635 264.451 45.8947 259.163 49.1267C257.473 50.2285 255.417 50.8162 253.36 50.8162ZM259.824 42.6628L259.016 42.2955C259.016 42.2955 257.841 41.7813 257.106 41.414C257.033 41.414 256.959 41.3406 256.886 41.3406C256.665 41.3406 256.518 41.414 256.372 41.4875C256.372 41.4875 256.298 41.561 255.27 42.7362C255.196 42.8831 255.049 42.9566 254.902 42.9566H254.829C254.756 42.9566 254.609 42.8831 254.535 42.8097L254.168 42.6628C253.36 42.2955 252.625 41.8548 252.038 41.2671C251.891 41.1202 251.67 40.9733 251.524 40.8264C251.009 40.3122 250.495 39.7246 250.128 39.0635L250.054 38.9166C249.981 38.8432 249.981 38.7697 249.908 38.6228C249.908 38.4759 249.908 38.329 249.981 38.2555C249.981 38.2555 250.275 37.8883 250.495 37.6679C250.642 37.521 250.716 37.3006 250.862 37.1537C251.009 36.9334 251.083 36.6395 251.009 36.4192C250.936 36.0519 250.054 34.0686 249.834 33.6279C249.687 33.4076 249.54 33.3341 249.32 33.2607H249.1C248.953 33.2607 248.732 33.2607 248.512 33.2607C248.365 33.2607 248.218 33.3341 248.071 33.3341L247.998 33.4076C247.851 33.481 247.704 33.6279 247.557 33.7014C247.41 33.8483 247.337 33.9952 247.19 34.1421C246.676 34.8032 246.382 35.6112 246.382 36.4192C246.382 37.0068 246.529 37.5944 246.749 38.1086L246.823 38.329C247.484 39.7246 248.365 40.9733 249.54 42.0751L249.834 42.3689C250.054 42.5893 250.275 42.7362 250.422 42.9566C251.964 44.2787 253.727 45.2337 255.71 45.7478C255.931 45.8213 256.225 45.8213 256.445 45.8947C256.665 45.8947 256.959 45.8947 257.18 45.8947C257.547 45.8947 257.988 45.7478 258.281 45.6009C258.502 45.454 258.649 45.454 258.796 45.3071L258.942 45.1602C259.089 45.0133 259.236 44.9398 259.383 44.7929C259.53 44.646 259.677 44.4991 259.75 44.3522C259.897 44.0584 259.971 43.6911 260.044 43.3238C260.044 43.1769 260.044 42.9566 260.044 42.8097C260.044 42.8097 259.971 42.7362 259.824 42.6628Z" fill="white"/>
<rect x="156.197" y="0.00012207" width="36.3642" height="36.3642" rx="5.6819" fill="white"/>
<path d="M173.861 31.8176C181.392 31.8176 187.498 25.7123 187.498 18.181C187.498 10.6497 181.392 4.54443 173.861 4.54443C166.33 4.54443 160.224 10.6497 160.224 18.181C160.224 25.7123 166.33 31.8176 173.861 31.8176Z" fill="url(#paint3_linear_1_1105)"/>
<path d="M180.666 12.5402C180.787 11.7556 180.042 11.1364 179.344 11.4427L165.45 17.5429C164.95 17.7625 164.986 18.5203 165.505 18.6855L168.37 19.598C168.917 19.7722 169.509 19.6821 169.987 19.3522L176.447 14.8891C176.642 14.7545 176.854 15.0315 176.688 15.203L172.038 19.9973C171.587 20.4624 171.676 21.2505 172.219 21.5907L177.425 24.8555C178.009 25.2216 178.76 24.8538 178.869 24.1481L180.666 12.5402Z" fill="white"/>
<rect x="147.729" y="147.729" width="54.5462" height="54.5462" rx="5.6819" fill="#FF3D07"/>
<path d="M160.87 181.646C158.714 181.646 157.126 181.188 156.105 180.272C155.085 179.356 154.574 178.05 154.574 176.352C154.574 174.645 155.085 173.295 156.105 172.303C157.126 171.311 158.714 170.815 160.87 170.815C163.884 170.815 165.901 171.85 166.921 173.92C166.063 174.215 165.057 174.659 163.903 175.25C163.626 174.716 163.187 174.32 162.586 174.063C161.995 173.805 161.389 173.676 160.769 173.676C159.854 173.676 159.172 173.92 158.723 174.406C158.275 174.883 158.051 175.474 158.051 176.18C158.051 176.943 158.289 177.568 158.766 178.054C159.253 178.531 159.992 178.77 160.984 178.77C161.776 178.77 162.405 178.641 162.873 178.383C163.34 178.116 163.683 177.697 163.903 177.124C164.685 177.544 165.686 178.016 166.907 178.541C166.43 179.695 165.634 180.501 164.518 180.959C163.402 181.417 162.186 181.646 160.87 181.646ZM179.56 174.578C179.56 175.408 179.355 176.109 178.945 176.681C178.544 177.253 177.853 177.668 176.87 177.926C176.985 178.078 177.066 178.197 177.113 178.283L179.431 181.502H175.54C175.12 180.72 174.457 179.614 173.551 178.183H171.448V181.502H168.071C168.148 179.652 168.186 177.921 168.186 176.309C168.186 174.697 168.148 172.966 168.071 171.115H171.448V171.13H174.381C176.307 171.13 177.652 171.44 178.415 172.06C179.178 172.68 179.56 173.519 179.56 174.578ZM171.448 173.877V175.508H173.379C174.19 175.508 174.8 175.484 175.211 175.436C175.63 175.379 175.921 175.293 176.083 175.179C176.245 175.064 176.326 174.897 176.326 174.678C176.326 174.468 176.25 174.306 176.098 174.191C175.945 174.077 175.659 173.996 175.239 173.948C174.819 173.901 174.199 173.877 173.379 173.877H171.448ZM193.8 171.115L194.916 181.502H191.21L190.981 174.091L189.55 181.502H185.802L184.343 174.149L184.128 181.502H180.422L181.538 171.115H186.403L187.647 177.883L188.735 171.115H193.8Z" fill="white"/>
<defs>
<radialGradient id="paint0_radial_1_1105" cx="0" cy="0" r="1" gradientUnits="userSpaceOnUse" gradientTransform="translate(327.921 181.82) rotate(-55.3758) scale(24.8571)">
<stop stop-color="#B13589"/>
<stop offset="0.79309" stop-color="#C62F94"/>
<stop offset="1" stop-color="#8A3AC8"/>
</radialGradient>
<radialGradient id="paint1_radial_1_1105" cx="0" cy="0" r="1" gradientUnits="userSpaceOnUse" gradientTransform="translate(326.947 189.612) rotate(-65.1363) scale(22.0077)">
<stop stop-color="#E0E8B7"/>
<stop offset="0.444662" stop-color="#FB8A2E"/>
<stop offset="0.71474" stop-color="#E2425C"/>
<stop offset="1" stop-color="#E2425C" stop-opacity="0"/>
</radialGradient>
<radialGradient id="paint2_radial_1_1105" cx="0" cy="0" r="1" gradientUnits="userSpaceOnUse" gradientTransform="translate(316.72 162.339) rotate(-8.1301) scale(37.8813 8.10241)">
<stop offset="0.156701" stop-color="#406ADC"/>
<stop offset="0.467799" stop-color="#6A45BE"/>
<stop offset="1" stop-color="#6A45BE" stop-opacity="0"/>
</radialGradient>
<linearGradient id="paint3_linear_1_1105" x1="173.861" y1="4.54443" x2="173.861" y2="31.8176" gradientUnits="userSpaceOnUse">
<stop stop-color="#37BBFE"/>
<stop offset="1" stop-color="#007DBB"/>
</linearGradient>
</defs>
</svg>
